<svg width="359" height="60" viewBox="0 0 359 60" xmlns="http://www.w3.org/2000/svg"><title>logo</title><g fill="none" fill-rule="evenodd"><path fill="#ABB1BC" d="M299 0h60v60h-60z"/><path d="M332.965 33.067a3.61 3.61 0 0 1-.288 1.452 3.022 3.022 0 0 1-.876 1.146c-.393.322-.891.572-1.494.752-.603.179-1.319.269-2.148.269-1.447 0-2.574-.285-3.381-.854-.808-.569-1.322-1.392-1.545-2.468l1.716-.343c.074.34.186.65.334.928.149.278.353.518.613.719.26.2.578.357.955.468.377.112.829.167 1.355.167a5.52 5.52 0 0 0 1.22-.125c.368-.084.683-.215.946-.394.263-.18.468-.409.617-.687.148-.278.222-.612.222-1.002 0-.433-.1-.785-.301-1.057a2.306 2.306 0 0 0-.793-.668 5.2 5.2 0 0 0-1.109-.422c-.411-.109-.827-.215-1.248-.32-.309-.081-.621-.166-.937-.256a8.277 8.277 0 0 1-.909-.315 4.926 4.926 0 0 1-.812-.427 2.868 2.868 0 0 1-.658-.594 2.589 2.589 0 0 1-.441-.816 3.418 3.418 0 0 1-.158-1.09c0-.594.112-1.103.334-1.526a2.86 2.86 0 0 1 .919-1.04c.39-.268.85-.465 1.382-.588a7.61 7.61 0 0 1 1.726-.186c.717 0 1.328.063 1.832.19s.93.317 1.28.57c.35.254.63.568.84.942.21.375.377.81.5 1.304l-1.743.306a3.2 3.2 0 0 0-.302-.844 1.903 1.903 0 0 0-.529-.622 2.336 2.336 0 0 0-.793-.38 4.087 4.087 0 0 0-1.095-.13c-.495 0-.909.051-1.243.153a2.205 2.205 0 0 0-.807.418 1.517 1.517 0 0 0-.44.626c-.09.241-.135.5-.135.78 0 .37.082.672.246.904.164.232.386.423.668.575.281.151.609.277.983.376l1.201.315c.34.087.684.178 1.03.274.347.095.679.208.998.338.318.13.615.283.89.46.275.176.515.39.72.644.203.254.364.55.482.89.117.341.176.737.176 1.188z" fill="#FFF"/><path fill="#8C5DA5" d="M239 0h60v60h-60z"/><path fill="#34C868" d="M179 0h60v60h-60z"/><path fill="#FFF" d="M211.805 36.5l-4.518-5.919-1.512 1.568V36.5h-1.772V23.985h1.772v6.244l5.307-6.244h2.087l-4.676 5.307 5.39 7.208z"/><path fill="#F6B411" d="M120 0h60v60h-60z"/><path d="M153.946 30.182c0 1.07-.108 2.01-.324 2.82-.217.81-.53 1.49-.937 2.037a3.912 3.912 0 0 1-1.499 1.234c-.59.275-1.257.413-1.999.413-.785 0-1.475-.146-2.069-.436a3.925 3.925 0 0 1-1.484-1.267c-.396-.553-.693-1.234-.89-2.04-.199-.808-.298-1.728-.298-2.76 0-1.07.105-2.005.316-2.803.21-.797.516-1.462.918-1.994s.899-.931 1.49-1.197c.59-.266 1.269-.399 2.036-.399 1.527 0 2.7.537 3.516 1.61.816 1.073 1.224 2.667 1.224 4.782zm-1.864 0c0-1.67-.245-2.911-.733-3.725-.489-.813-1.203-1.22-2.143-1.22-.965 0-1.689.407-2.171 1.22-.483.814-.724 2.055-.724 3.725s.244 2.932.733 3.785c.489.854 1.206 1.28 2.152 1.28 1.008 0 1.741-.432 2.199-1.298.458-.866.687-2.122.687-3.767z" fill="#FFF"/><path fill="#C83A6F" d="M60 0h60v60H60z"/><path fill="#FFF" d="M85.699 36.5V23.985h1.772v11.068h6.234V36.5z"/><path fill="#2E8CD2" d="M0 0h60v60H0z"/><path d="M35.688 32.975c0 .637-.13 1.178-.39 1.623-.26.445-.61.809-1.048 1.09-.44.282-.95.487-1.531.617a8.405 8.405 0 0 1-1.837.195h-4.38V23.985h3.823c.724 0 1.37.059 1.94.176.568.118 1.05.299 1.446.543.396.244.698.558.905.942.207.383.31.84.31 1.373 0 .346-.05.675-.152.988a2.56 2.56 0 0 1-.464.844c-.207.25-.466.467-.775.65a3.55 3.55 0 0 1-1.095.403c.526.055.992.17 1.397.343.405.173.743.394 1.016.663.272.27.479.579.621.928.142.35.214.728.214 1.137zm-2.542-5.734c0-.662-.234-1.133-.7-1.415-.468-.281-1.168-.422-2.102-.422h-2.07v3.86h2.088c.501 0 .928-.048 1.28-.144.353-.096.64-.232.863-.408.223-.177.385-.388.487-.636.102-.247.154-.526.154-.835zm.751 5.576c0-.39-.079-.72-.237-.993a1.905 1.905 0 0 0-.668-.672 3.146 3.146 0 0 0-1.034-.385c-.402-.08-.85-.121-1.345-.121h-2.338v4.435h2.468c.451 0 .87-.036 1.257-.107.386-.071.72-.193 1.002-.367.281-.173.5-.405.658-.695.158-.291.237-.656.237-1.095z" fill="#FFF"/></g></svg>