<svg version="1.1" xmlns="http://www.w3.org/2000/svg" id="svgSjdd6vnlh1x" viewBox="0 0 640 400" preserveAspectRatio="xMinYMin"><desc>Created with Snap</desc><defs></defs><g token="svgSjdd6vnlh1x" class="movieclip"><g token="12" transform="matrix(1,0,0,1,0,0)" class="shape"><path fill="#ffffff" d="M 140.1 0l0 400l499.95 0l0 -400l-499.95 0" style=""></path></g><g token="11" transform="matrix(1,0,0,1,0,0)" class="shape"><path fill="rgba(0,0,0,0.098)" d="M 640.15 366l0 -1l-480 0l0 1l480 0" style=""></path><path fill="rgba(0,0,0,0.098)" d="M 640.15 286l0 -1l-480 0l0 1l480 0" style=""></path><path fill="rgba(0,0,0,0.098)" d="M 640.05 206l0 -1l-380 0l0 1l380 0" style=""></path><path fill="rgba(0,0,0,0.098)" d="M 640.05 126l0 -1l-380 0l0 1l380 0" style=""></path><path fill="rgba(0,0,0,0.098)" d="M 640.05 46l0 -1l-380 0l0 1l380 0" style=""></path></g><g token="10" transform="matrix(1,0,0,1,0,0)" class="shape"><path fill="#ced1d6" d="M 160.1 295l0 5l30 0l0 -5l-30 0" style=""></path><path fill="#ced1d6" d="M 160.1 375l0 5l30 0l0 -5l-30 0" style=""></path><path fill="#ced1d6" d="M 360.05 25l0 -5l-100 0l0 5l100 0" style=""></path><path fill="#ced1d6" d="M 577.5 25l0 -5l-115 0l0 5l115 0" style=""></path></g><g token="9" transform="matrix(1,0,0,1,0,0)" class="shape"><path fill="#2e8cd2" d="M 210 399.8l200 0l0 -87l-200 0l0 87" style=""></path><path fill="#2e8cd2" d="M 620 165l-200 0l0 235l200 0l0 -235" style=""></path><path fill="#2e8cd2" d="M 410 205.05l0 -160l-150 0l0 160l150 0" style=""></path><path fill="#2e8cd2" d="M 410 303l0 -55l-200 0l0 55l200 0" style=""></path><path fill="#2e8cd2" d="M 620 125.1l0 -80l-200 0l0 80l200 0" style=""></path></g><g token="8" transform="matrix(1,0,0,1,0,0)" class="shape"><path fill="#32353a" d="M 0.05 0l0 218l260 0l0 -218l-260 0" style=""></path></g><g token="7" transform="matrix(1,0,0,1,0,0)" class="shape"><path fill="#3d4147" d="M 260.05 172l0 -1l-260 0l0 1l260 0" style=""></path><path fill="#3d4147" d="M 260.05 46l0 -1l-260 0l0 1l260 0" style=""></path></g><g token="6" transform="matrix(1,0,0,1,0,0)" class="shape"><path fill="#bcc1c8" d="M 20 146l0 5l60 0l0 -5l-60 0" style=""></path><path fill="#bcc1c8" d="M 20 192l0 5l60 0l0 -5l-60 0" style=""></path><path fill="#bcc1c8" d="M 40 86l0 5l30 0l0 -5l-30 0" style=""></path><path fill="#bcc1c8" d="M 120.1 71l0 -5l-100 0l0 5l100 0" style=""></path><path fill="#bcc1c8" d="M 100.1 25l0 -5l-80 0l0 5l80 0" style=""></path></g><g token="5" transform="matrix(1.5,0,0,1,-117.6,106)" class="shape"><path fill="#bcc1c8" d="M 145.1 25l0 -5l-40 0l0 5l40 0" style=""></path></g><g token="4" transform="matrix(1.75,0,0,1,-143.8,86)" class="shape"><path fill="#bcc1c8" d="M 145.1 25l0 -5l-40 0l0 5l40 0" style=""></path></g><g token="3" transform="matrix(1,0,0,1,0,0)" class="shape"><path fill="#abb1bc" d="M 85 192l0 5l30 0l0 -5l-30 0" style=""></path></g><g token="2" transform="matrix(0.75,0,0,1,-3.75,66)" class="shape"><path fill="#bcc1c8" d="M 145.1 25l0 -5l-40 0l0 5l40 0" style=""></path></g><g token="1" transform="matrix(1,0,0,1,0,0)" class="shape"><path fill="#bcc1c8" d="M 145.1 25l0 -5l-40 0l0 5l40 0" style=""></path></g></g></svg>