    <svg version="1.1" xmlns="http://www.w3.org/2000/svg" id="svgSjdd67yhvm" viewBox="0 0 640 400" preserveAspectRatio="xMinYMin"><desc>Created with Snap</desc><defs></defs><g token="svgSjdd67yhvm" class="movieclip"><g token="7" transform="matrix(1,0,0,1,0,0)" class="shape"><path fill="#e2e4e6" d="M 608 367l0 -276l-608 0l0 276l608 0" style=""></path><path fill="#ced1d6" d="M 608 91l0 -74l-608 0l0 74l608 0" style=""></path><path fill="#abb1bc" d="M 608 17l0 -14q0 -3 -3 -3l-602 0q-3 0 -3 3l0 14l608 0" style=""></path></g><g token="6" transform="matrix(1,0,0,1,0,0)" class="shape"><path fill="#c83a6f" d="M 12 8.5q0 -1.45 -1.05 -2.5q-1 -1 -2.45 -1q-1.45 0 -2.5 1q-1 1.05 -1 2.5q0 1.45 1 2.45q1.05 1.05 2.5 1.05q1.45 0 2.45 -1.05q1.05 -1 1.05 -2.45" style=""></path><path fill="#f6b411" d="M 23 8.5q0 -1.45 -1.05 -2.5q-1 -1 -2.45 -1q-1.45 0 -2.5 1q-1 1.05 -1 2.5q0 1.45 1 2.45q1.05 1.05 2.5 1.05q1.45 0 2.45 -1.05q1.05 -1 1.05 -2.45" style=""></path><path fill="#34c868" d="M 34 8.5q0 -1.45 -1.05 -2.5q-1 -1 -2.45 -1q-1.45 0 -2.5 1q-1 1.05 -1 2.5q0 1.45 1 2.45q1.05 1.05 2.5 1.05q1.45 0 2.45 -1.05q1.05 -1 1.05 -2.45" style=""></path><path fill="#ced1d6" d="M 460 111l0 92l118 0l0 -92l-118 0" style=""></path><path fill="#f2f2f2" d="M 430.05 347l0 -236l-400.05 0l0 236l400.05 0" style=""></path><path fill="#ced1d6" d="M 460 212.9l0 46l118 0l0 -46l-118 0" style=""></path><path fill="#ced1d6" d="M 460 288.9l0 5l118 0l0 -5l-118 0" style=""></path><path fill="#ced1d6" d="M 460 278.9l0 5l118 0l0 -5l-118 0" style=""></path><path fill="#ced1d6" d="M 460 268.9l0 5l118 0l0 -5l-118 0" style=""></path><path fill="#bcc1c8" d="M 358 52l0 -5l-115 0l0 5l115 0" style=""></path><path fill="#bcc1c8" d="M 335 61l0 -5l-69 0l0 5l69 0" style=""></path></g><g token="5" transform="matrix(1,0,0,1,0,0)" class="shape"><path fill="#e3e4e7" d="M 420 302l0 -1l-380 0l0 1l380 0" style=""></path><path fill="#e3e4e7" d="M 420 332l0 -1l-380 0l0 1l380 0" style=""></path><path fill="#e3e4e7" d="M 420 272l0 -1l-380 0l0 1l380 0" style=""></path><path fill="#e3e4e7" d="M 420 212l0 -1l-380 0l0 1l380 0" style=""></path><path fill="#e3e4e7" d="M 420 242l0 -1l-380 0l0 1l380 0" style=""></path><path fill="#e3e4e7" d="M 420 152l0 -1l-380 0l0 1l380 0" style=""></path><path fill="#e3e4e7" d="M 420 182l0 -1l-380 0l0 1l380 0" style=""></path><path fill="#e3e4e7" d="M 420 122l0 -1l-380 0l0 1l380 0" style=""></path></g><g token="4" transform="matrix(1,0,0,1,0,-222)" class="shape"><path fill="#212428" d="M 620 382l-72 0q-20 0 -20 20l0 200q0 20 20 20l72 0q20 0 20 -20l0 -200q0 -20 -20 -20" style=""></path></g><g token="3" transform="matrix(1,0,0,1,0,0)" class="shape"><path fill="#f2f2f2" d="M 633.05 193l-98 0l0 174l98 0l0 -174" style=""></path></g><g token="2" transform="matrix(1,0,0,1,0,0)" class="shape"><path fill="#e3e4e7" d="M 535 353l0 1l98 0l0 -1l-98 0" style=""></path><path fill="#e3e4e7" d="M 535 323l0 1l98 0l0 -1l-98 0" style=""></path><path fill="#e3e4e7" d="M 633 264l0 -1l-98 0l0 1l98 0" style=""></path><path fill="#e3e4e7" d="M 633 294l0 -1l-98 0l0 1l98 0" style=""></path><path fill="#e3e4e7" d="M 633 204l0 -1l-98 0l0 1l98 0" style=""></path><path fill="#e3e4e7" d="M 633 234l0 -1l-98 0l0 1l98 0" style=""></path></g><g token="1" transform="matrix(1,0,0,1,0,0)" class="shape" style="visibility: hidden;"><path fill="#f2f2f2" d="M 633.05 193l-98 0l0 174l98 0l0 -174" style=""></path></g></g></svg>