<svg version="1.1" xmlns="http://www.w3.org/2000/svg" id="svgSjdd5pwjh0" viewBox="0 0 640 400" preserveAspectRatio="xMinYMin"><desc>Created with Snap</desc><defs></defs><g token="svgSjdd5pwjh0" class="movieclip"><g token="2" transform="matrix(1,0,0,1,0,0)" class="shape"><path fill="#2e8cd2" d="M 22 17l-22 0l0 22l22 0l0 -22" style=""></path><path fill="#c83a6f" d="M 44 39l0 -22l-22 0l0 22l22 0" style=""></path><path fill="#f6b411" d="M 66 17l-22 0l0 22l22 0l0 -22" style=""></path><path fill="#f8f8f8" d="M 110 39l-22 0l-22 0l-22 0l-22 0l-22 0l0 361l640 0l0 -361l-508 0l-22 0" style=""></path><path fill="#34c868" d="M 88 39l0 -22l-22 0l0 22l22 0" style=""></path><path fill="#8c5da5" d="M 110 39l0 -22l-22 0l0 22l22 0" style=""></path><path fill="#212428" d="M 640 39l0 -22l-508 0l0 22l508 0" style=""></path><path fill="#abb1bc" d="M 640 17l0 -14q0 -3 -3 -3l-634 0q-3 0 -3 3l0 14l22 0l22 0l22 0l22 0l22 0l0 22l22 0l0 -22l508 0" style=""></path></g><g token="1" transform="matrix(1,0,0,1,0,0)" class="shape"><path fill="#c83a6f" d="M 12 8.5q0 -1.45 -1.05 -2.5q-1 -1 -2.45 -1q-1.45 0 -2.5 1q-1 1.05 -1 2.5q0 1.45 1 2.45q1.05 1.05 2.5 1.05q1.45 0 2.45 -1.05q1.05 -1 1.05 -2.45" style=""></path><path fill="#f6b411" d="M 23 8.5q0 -1.45 -1.05 -2.5q-1 -1 -2.45 -1q-1.45 0 -2.5 1q-1 1.05 -1 2.5q0 1.45 1 2.45q1.05 1.05 2.5 1.05q1.45 0 2.45 -1.05q1.05 -1 1.05 -2.45" style=""></path><path fill="#34c868" d="M 34 8.5q0 -1.45 -1.05 -2.5q-1 -1 -2.45 -1q-1.45 0 -2.5 1q-1 1.05 -1 2.5q0 1.45 1 2.45q1.05 1.05 2.5 1.05q1.45 0 2.45 -1.05q1.05 -1 1.05 -2.45" style=""></path><path fill="#e3e4e7" d="M 620 361l0 -1l-600 0l0 1l600 0" style=""></path><path fill="#e3e4e7" d="M 620 311l0 -1l-600 0l0 1l600 0" style=""></path><path fill="#e3e4e7" d="M 620 261l0 -1l-600 0l0 1l600 0" style=""></path><path fill="#e3e4e7" d="M 620 211l0 -1l-600 0l0 1l600 0" style=""></path><path fill="#e3e4e7" d="M 620 161l0 -1l-600 0l0 1l600 0" style=""></path><path fill="#e3e4e7" d="M 620 111l0 -1l-600 0l0 1l600 0" style=""></path><path fill="#e3e4e7" d="M 620 61l0 -1l-600 0l0 1l600 0" style=""></path></g></g></svg>