<svg version="1.1" xmlns="http://www.w3.org/2000/svg" id="svgSjdd6vnlh33" viewBox="0 0 640 400" preserveAspectRatio="xMinYMin"><desc>Created with Snap</desc><defs></defs><g token="svgSjdd6vnlh33" class="movieclip"><g token="26" transform="matrix(1,0,0,1,0,0)" class="shape"><path fill="#212428" d="M 310 27q0 -11.15 -7.95 -19.1q-7.9 -7.9 -19.05 -7.9l-136 0q-11.15 0 -19.1 7.9q-7.9 7.95 -7.9 19.1l0 346q0 11.15 7.9 19.05q7.95 7.95 19.1 7.95l136 0q11.15 0 19.05 -7.95q7.95 -7.9 7.95 -19.05l0 -346" style=""></path></g><g token="25" transform="matrix(1,0,0,1,0,0)" class="shape"><path fill="#212428" d="M 520 38q0 -8 -8 -8l-174 0q-8 0 -8 8l0 324q0 8 8 8l174 0q8 0 8 -8l0 -324" style=""></path></g><g token="24" transform="matrix(1,0,0,1,0,0)" class="shape"><path fill="#ffffff" d="M 130 136l0 209l170 0l0 -209l-170 0" style=""></path><path fill="#2e3136" d="M 300 136l0 -81l-170 0l0 81l170 0" style=""></path></g><g token="23" transform="matrix(1,0,0,1,0,0)" class="shape"><path fill="#e3e4e7" d="M 130 302l0 1l170 0l0 -1l-170 0" style=""></path><path fill="#e3e4e7" d="M 130 250l0 1l170 0l0 -1l-170 0" style=""></path><path fill="#e3e4e7" d="M 130 198l0 1l170 0l0 -1l-170 0" style=""></path><path fill="#e3e4e7" d="M 300 147l0 -1l-170 0l0 1l170 0" style=""></path></g><g token="22" transform="matrix(1,0,0,1,0,-42)" class="shape"><path fill="#43464a" d="M 179 112l0 -5l-39 0l0 5l39 0" style=""></path></g><g token="21" transform="matrix(1,0,0,1,0,-28)" class="shape"><path fill="#43464a" d="M 179 112l0 -5l-39 0l0 5l39 0" style=""></path></g><g token="20" transform="matrix(1,0,0,1,0,-14)" class="shape"><path fill="#43464a" d="M 179 112l0 -5l-39 0l0 5l39 0" style=""></path></g><g token="19" transform="matrix(1,0,0,1,0,14)" class="shape"><path fill="#43464a" d="M 179 112l0 -5l-39 0l0 5l39 0" style=""></path></g><g token="18" transform="matrix(1,0,0,1,0,0)" class="shape"><path fill="#43464a" d="M 179 112l0 -5l-39 0l0 5l39 0" style=""></path></g><g token="17" transform="matrix(0.2,0,0,0.294,162,-31.45)" class="shape"><path fill="#8c5da5" d="M 140 327.95l0 17l150 0l0 -17l-150 0" style=""></path></g><g token="16" transform="matrix(0.133,0,0,0.068,171.35,65.6)" class="shape"><path fill="#2e8cd2" d="M 140 198l0 74l150 0l0 -74l-150 0" style=""></path></g><g token="15" transform="matrix(0.333,0,0,0.294,143.4,-3.45)" class="shape"><path fill="#8c5da5" d="M 140 327.95l0 17l150 0l0 -17l-150 0" style=""></path></g><g token="14" transform="matrix(0.067,0,0,0.294,180.65,10.55)" class="shape"><path fill="#8c5da5" d="M 140 327.95l0 17l150 0l0 -17l-150 0" style=""></path></g><g token="13" transform="matrix(0.2,0,0,0.068,162,107.6)" class="shape"><path fill="#2e8cd2" d="M 140 198l0 74l150 0l0 -74l-150 0" style=""></path></g><g token="12" transform="matrix(1,0,0,1,210,0)" class="shape"><path fill="#ffffff" d="M 130 136l0 209l170 0l0 -209l-170 0" style=""></path><path fill="#2e3136" d="M 300 136l0 -81l-170 0l0 81l170 0" style=""></path></g><g token="11" transform="matrix(1,0,0,1,210,0)" class="shape"><path fill="#e3e4e7" d="M 130 302l0 1l170 0l0 -1l-170 0" style=""></path><path fill="#e3e4e7" d="M 130 250l0 1l170 0l0 -1l-170 0" style=""></path><path fill="#e3e4e7" d="M 130 198l0 1l170 0l0 -1l-170 0" style=""></path><path fill="#e3e4e7" d="M 300 147l0 -1l-170 0l0 1l170 0" style=""></path></g><g token="10" transform="matrix(1,0,0,1,210,-42)" class="shape"><path fill="#43464a" d="M 179 112l0 -5l-39 0l0 5l39 0" style=""></path></g><g token="9" transform="matrix(1,0,0,1,210,-28)" class="shape"><path fill="#43464a" d="M 179 112l0 -5l-39 0l0 5l39 0" style=""></path></g><g token="8" transform="matrix(1,0,0,1,210,-14)" class="shape"><path fill="#43464a" d="M 179 112l0 -5l-39 0l0 5l39 0" style=""></path></g><g token="7" transform="matrix(1,0,0,1,210,14)" class="shape"><path fill="#43464a" d="M 179 112l0 -5l-39 0l0 5l39 0" style=""></path></g><g token="6" transform="matrix(1,0,0,1,210,0)" class="shape"><path fill="#43464a" d="M 179 112l0 -5l-39 0l0 5l39 0" style=""></path></g><g token="5" transform="matrix(0.2,0,0,0.294,372,-31.45)" class="shape"><path fill="#8c5da5" d="M 140 327.95l0 17l150 0l0 -17l-150 0" style=""></path></g><g token="4" transform="matrix(0.133,0,0,0.068,381.35,65.6)" class="shape"><path fill="#2e8cd2" d="M 140 198l0 74l150 0l0 -74l-150 0" style=""></path></g><g token="3" transform="matrix(0.333,0,0,0.294,353.4,-3.45)" class="shape"><path fill="#8c5da5" d="M 140 327.95l0 17l150 0l0 -17l-150 0" style=""></path></g><g token="2" transform="matrix(0.067,0,0,0.294,390.65,10.55)" class="shape"><path fill="#8c5da5" d="M 140 327.95l0 17l150 0l0 -17l-150 0" style=""></path></g><g token="1" transform="matrix(0.2,0,0,0.068,372,107.6)" class="shape"><path fill="#2e8cd2" d="M 140 198l0 74l150 0l0 -74l-150 0" style=""></path></g></g></svg>